<?xml version="1.0" standalone="no"?>
<!DOCTYPE svg PUBLIC "-//W3C//DTD SVG 20010904//EN"
 "http://www.w3.org/TR/2001/REC-SVG-20010904/DTD/svg10.dtd">
<svg version="1.0" xmlns="http://www.w3.org/2000/svg"
 width="1000.000000pt" height="1000.000000pt" viewBox="0 0 1000.000000 1000.000000"
 preserveAspectRatio="xMidYMid meet">

<g transform="translate(0.000000,1000.000000) scale(0.100000,-0.100000)"
fill="#000000" stroke="none">
<path d="M140 5235 l0 -225 25 0 25 0 0 183 c0 121 4 177 10 167 5 -8 35 -90
66 -182 l56 -168 32 0 31 0 60 178 60 177 3 -177 2 -178 30 0 30 0 0 225 0
225 -44 0 -44 0 -62 -186 c-34 -102 -66 -182 -70 -177 -4 4 -34 88 -66 186
l-59 177 -42 0 -43 0 0 -225z"/>
<path d="M990 5235 l0 -225 30 0 30 0 0 225 0 225 -30 0 -30 0 0 -225z"/>
<path d="M1460 5230 l0 -230 25 0 c15 0 25 6 25 15 0 11 7 10 35 -7 66 -38
142 -10 182 67 22 41 22 151 0 192 -35 66 -119 91 -182 55 l-35 -21 0 79 c0
79 0 80 -25 80 l-25 0 0 -230z m208 20 c47 -69 14 -200 -53 -208 -72 -9 -105
31 -105 128 0 55 3 65 30 91 24 25 37 30 67 27 30 -2 42 -10 61 -38z"/>
<path d="M2611 5438 c-22 -61 -112 -301 -135 -360 l-25 -68 33 0 c31 0 33 3
52 63 l20 62 94 0 94 0 20 -62 c19 -61 21 -63 54 -63 29 0 33 3 27 18 -6 14
-110 301 -147 405 -8 22 -16 27 -44 27 -27 0 -36 -5 -43 -22z m109 -245 c0 -2
-31 -3 -70 -3 -38 0 -70 1 -70 3 0 6 61 171 67 180 4 7 69 -154 73 -180z"/>
<path d="M3400 5230 l0 -230 30 0 30 0 0 120 c0 115 1 122 25 145 16 17 35 25
59 25 60 0 66 -15 66 -161 l0 -129 30 0 30 0 0 124 c0 147 -10 183 -56 202
-46 19 -83 17 -121 -6 l-33 -20 0 80 0 80 -30 0 -30 0 0 -230z"/>
<path d="M3740 5430 c0 -27 3 -30 30 -30 27 0 30 3 30 30 0 27 -3 30 -30 30
-27 0 -30 -3 -30 -30z"/>
<path d="M5920 5236 l0 -226 30 0 30 0 0 95 0 95 83 1 c45 0 98 5 117 12 68
24 102 121 64 186 -29 49 -49 55 -191 59 l-133 4 0 -226z m259 148 c26 -33 27
-75 2 -105 -17 -21 -29 -24 -110 -27 l-91 -4 0 81 0 81 89 0 c85 0 91 -1 110
-26z"/>
<path d="M6860 5430 c0 -27 3 -30 30 -30 27 0 30 3 30 30 0 27 -3 30 -30 30
-27 0 -30 -3 -30 -30z"/>
<path d="M8313 5238 c-65 -206 -68 -223 -51 -226 11 -2 22 -2 24 1 2 2 33 93
67 203 35 109 67 209 71 222 6 19 4 22 -17 22 -22 0 -28 -14 -94 -222z"/>
<path d="M8630 5235 l0 -225 25 0 25 0 1 183 c1 211 -2 212 79 -30 l52 -153
32 0 31 0 60 178 60 177 3 -177 2 -178 30 0 30 0 0 225 0 225 -44 0 -44 0 -62
-186 c-34 -102 -66 -182 -70 -177 -4 4 -34 88 -66 186 l-59 177 -42 0 -43 0 0
-225z"/>
<path d="M9261 5438 c-22 -61 -112 -301 -135 -360 l-25 -68 33 0 c31 0 33 3
52 63 l20 62 94 0 94 0 20 -62 c19 -61 21 -63 54 -63 29 0 33 3 27 18 -6 14
-110 301 -147 405 -8 22 -16 27 -44 27 -27 0 -36 -5 -43 -22z m109 -245 c0 -2
-31 -3 -70 -3 -38 0 -70 1 -70 3 0 6 61 171 67 180 4 7 69 -154 73 -180z"/>
<path d="M9550 5236 l0 -226 30 0 30 0 0 95 0 95 83 1 c45 0 98 5 117 12 68
24 102 121 64 186 -29 49 -49 55 -191 59 l-133 4 0 -226z m259 148 c28 -36 27
-79 -4 -109 -22 -23 -32 -25 -110 -25 l-85 0 0 80 0 80 89 0 c85 0 91 -1 110
-26z"/>
<path d="M3880 5375 c0 -38 -3 -45 -20 -45 -15 0 -20 -7 -20 -25 0 -18 5 -25
20 -25 19 0 20 -7 20 -114 0 -63 4 -126 9 -139 16 -42 101 -48 101 -7 0 12 -8
20 -22 22 -22 3 -23 7 -26 121 l-3 117 26 0 c20 0 25 5 25 25 0 20 -5 25 -25
25 -23 0 -25 4 -25 45 0 43 -1 45 -30 45 -29 0 -30 -2 -30 -45z"/>
<path d="M4700 5375 c0 -38 -3 -45 -20 -45 -15 0 -20 -7 -20 -25 0 -18 5 -25
20 -25 19 0 20 -7 20 -114 0 -63 4 -126 9 -139 16 -42 101 -48 101 -7 0 12 -8
20 -22 22 -22 3 -23 7 -26 121 l-3 117 26 0 c20 0 25 5 25 25 0 20 -5 25 -25
25 -23 0 -25 4 -25 45 0 43 -1 45 -30 45 -29 0 -30 -2 -30 -45z"/>
<path d="M7650 5375 c0 -38 -3 -45 -20 -45 -15 0 -20 -7 -20 -25 0 -18 5 -25
19 -25 18 0 20 -10 23 -130 2 -82 7 -133 15 -141 6 -6 29 -12 50 -13 32 -1 38
2 41 21 2 16 -3 22 -20 25 -22 3 -23 6 -26 121 l-3 117 26 0 c20 0 25 5 25 25
0 20 -5 25 -25 25 -23 0 -25 4 -25 45 0 43 -1 45 -30 45 -29 0 -30 -2 -30 -45z"/>
<path d="M715 5326 c-37 -16 -51 -33 -60 -69 -6 -24 -5 -27 19 -27 19 0 29 7
35 24 11 28 29 36 82 36 31 0 42 -5 56 -26 30 -46 11 -59 -121 -79 -55 -9 -86
-44 -86 -98 0 -85 87 -122 173 -75 l45 25 11 -24 c9 -20 17 -24 44 -21 24 2
33 8 35 26 3 17 -2 22 -17 22 -20 0 -21 5 -21 118 0 134 -8 155 -68 172 -49
13 -90 12 -127 -4z m141 -203 c-13 -72 -107 -111 -150 -64 -34 37 -5 76 65 90
87 17 92 16 85 -26z"/>
<path d="M1185 5326 c-37 -16 -51 -33 -60 -69 -6 -24 -5 -27 19 -27 19 0 29 7
36 25 18 46 114 49 140 3 13 -24 13 -29 0 -42 -8 -8 -37 -17 -65 -20 -112 -14
-145 -40 -145 -111 0 -61 34 -90 104 -90 37 1 61 7 83 23 31 22 32 22 38 2 7
-21 45 -36 70 -26 23 8 19 46 -5 46 -19 0 -20 7 -20 118 0 134 -8 155 -68 172
-49 13 -90 12 -127 -4z m140 -203 c-9 -50 -33 -73 -84 -80 -31 -4 -46 -1 -61
12 -52 47 12 99 129 104 22 1 23 -2 16 -36z"/>
<path d="M1865 5326 c-37 -16 -51 -33 -60 -69 -6 -24 -5 -27 19 -27 19 0 29 7
35 24 11 28 29 36 82 36 31 0 42 -5 56 -26 30 -46 11 -59 -121 -79 -55 -9 -86
-44 -86 -98 0 -85 83 -120 172 -74 45 23 48 23 53 6 7 -21 46 -35 70 -25 23 8
19 46 -5 46 -19 0 -20 7 -20 118 0 134 -8 155 -68 172 -49 13 -90 12 -127 -4z
m141 -203 c-9 -51 -46 -83 -95 -83 -64 0 -90 53 -45 91 15 12 71 25 123 28 22
1 23 -2 17 -36z"/>
<path d="M2232 5315 c-36 -30 -42 -31 -42 -5 0 15 -7 20 -25 20 l-25 0 0 -165
0 -165 30 0 30 0 0 114 c0 106 1 115 25 140 14 15 35 26 50 26 21 0 25 5 25
30 0 38 -26 40 -68 5z"/>
<path d="M2982 5315 c-36 -30 -42 -31 -42 -5 0 15 -7 20 -25 20 l-25 0 0 -165
0 -165 30 0 30 0 0 115 c0 110 1 117 25 140 13 14 36 25 50 25 21 0 25 5 25
30 0 38 -26 40 -68 5z"/>
<path d="M3150 5321 c-54 -29 -82 -91 -78 -172 3 -53 9 -73 31 -102 44 -58
114 -69 189 -31 24 13 58 68 58 95 0 17 -51 9 -57 -8 -29 -84 -138 -83 -159 2
-12 50 1 133 26 160 42 45 113 30 133 -27 7 -19 57 -26 57 -8 0 6 -7 26 -15
46 -25 60 -116 82 -185 45z"/>
<path d="M4110 5322 c-98 -49 -120 -200 -41 -285 32 -34 45 -40 87 -44 61 -5
109 18 142 67 l24 35 -25 3 c-17 2 -34 -7 -55 -27 -58 -59 -140 -34 -157 47
l-7 32 121 0 121 0 0 40 c0 60 -27 107 -75 130 -51 25 -89 25 -135 2z m122
-52 c14 -11 28 -31 30 -45 l5 -25 -94 0 c-93 0 -94 0 -88 23 18 61 98 86 147
47z"/>
<path d="M4440 5321 c-95 -50 -109 -233 -23 -300 62 -50 168 -29 203 40 26 50
25 59 -5 59 -18 0 -28 -7 -35 -24 -29 -77 -136 -71 -156 9 -12 50 1 133 26
160 42 45 113 30 133 -27 7 -19 57 -26 57 -8 0 6 -7 26 -15 46 -25 60 -116 82
-185 45z"/>
<path d="M5292 5315 c-36 -30 -42 -31 -42 -5 0 15 -7 20 -25 20 l-25 0 0 -165
0 -165 30 0 30 0 0 115 c0 110 1 117 25 140 13 14 36 25 50 25 21 0 25 5 25
30 0 38 -26 40 -68 5z"/>
<path d="M5470 5322 c-98 -49 -120 -200 -41 -285 32 -34 45 -40 87 -44 61 -5
109 18 142 67 l24 35 -25 3 c-17 2 -34 -7 -55 -27 -58 -59 -140 -34 -157 47
l-7 32 121 0 121 0 0 40 c0 60 -27 107 -75 130 -51 25 -89 25 -135 2z m122
-52 c14 -11 28 -31 30 -45 l5 -25 -94 0 c-93 0 -94 0 -88 23 18 61 98 86 147
47z"/>
<path d="M6412 5315 c-36 -30 -42 -31 -42 -5 0 15 -7 20 -25 20 l-25 0 0 -165
0 -165 30 0 30 0 0 115 c0 110 1 117 25 140 13 14 36 25 50 25 21 0 25 5 25
30 0 38 -26 40 -68 5z"/>
<path d="M6605 5333 c-87 -22 -136 -168 -87 -262 48 -96 185 -109 250 -23 25
32 27 43 27 123 0 79 -2 90 -25 114 -42 46 -102 63 -165 48z m97 -54 c22 -12
48 -66 48 -101 0 -39 -20 -98 -41 -119 -21 -21 -78 -26 -108 -9 -33 17 -54 96
-41 153 16 74 81 109 142 76z"/>
<path d="M7060 5322 c-99 -49 -120 -200 -40 -286 38 -40 40 -41 104 -41 55 0
69 4 91 25 15 14 33 37 41 53 14 26 14 27 -10 27 -14 0 -38 -13 -55 -31 -26
-26 -37 -30 -72 -27 -46 3 -72 29 -85 81 l-6 27 121 0 121 0 0 44 c0 77 -69
146 -145 146 -16 0 -46 -8 -65 -18z m122 -52 c14 -11 28 -31 30 -45 l5 -25
-94 0 c-93 0 -94 0 -88 23 18 61 98 86 147 47z"/>
<path d="M7390 5321 c-54 -29 -82 -91 -78 -172 3 -53 9 -73 31 -102 44 -58
114 -69 189 -31 24 13 58 68 58 95 0 17 -51 9 -57 -8 -29 -84 -138 -83 -159 2
-12 50 1 133 26 160 42 45 113 30 133 -27 7 -19 57 -26 57 -8 0 6 -7 26 -15
46 -25 60 -116 82 -185 45z"/>
<path d="M7864 5326 c-56 -25 -79 -80 -53 -127 11 -22 36 -34 118 -55 84 -22
100 -45 61 -84 -14 -14 -33 -20 -65 -20 -38 0 -48 4 -67 30 -13 18 -31 30 -45
30 -27 0 -27 0 -8 -46 44 -105 255 -73 255 39 0 57 -33 84 -124 101 -51 10
-76 26 -76 51 0 32 20 45 67 45 34 0 46 -5 59 -25 18 -28 64 -35 64 -10 0 8
-12 28 -27 45 -34 37 -108 49 -159 26z"/>
<path d="M3740 5165 l0 -165 30 0 30 0 0 165 0 165 -30 0 -30 0 0 -165z"/>
<path d="M4850 5200 c0 -153 10 -182 66 -200 44 -15 91 -6 121 22 l23 21 0
-21 c0 -17 6 -22 25 -22 l25 0 0 165 0 165 -24 0 c-24 0 -24 -1 -27 -121 -4
-118 -5 -121 -32 -145 -32 -28 -78 -31 -101 -8 -13 12 -16 41 -16 145 l0 129
-30 0 -30 0 0 -130z"/>
<path d="M6858 5128 c-3 -202 -3 -203 -25 -206 -17 -3 -23 -10 -23 -29 0 -24
2 -25 37 -20 67 11 68 14 71 247 l3 210 -30 0 -31 0 -2 -202z"/>
</g>
</svg>
